<svg width="612.001" height="612.001" xmlns="http://www.w3.org/2000/svg">
    <metadata id="metadata13">image/svg+xml</metadata>

    <g>
        <title>background</title>
        <rect fill="none" id="canvas_background" height="402" width="582" y="-1" x="-1"/>
    </g>
    <g>
        <title>Layer 1</title>
        <g stroke="null" id="g3826">
            <circle stroke="null" stroke-width="1.195315" id="circle3814" cx="820.459905" cy="-504.033628" r="152.102921" transform="translate(-516.407958984375,-163.88978576660156) scale(1,-1) "/>
            <g stroke="null" id="g3820">
                <g stroke="null" id="g3818">
                    <path stroke="null" fill="#50fa7b" d="m102.100991,249.104699c0,132.977551 108.272212,316.896297 203.899925,316.896297c90.024266,0 203.89908,-183.918746 203.89908,-316.896297c0,-132.977551 -91.288716,-200.033091 -203.899925,-200.033091c-112.611209,0 -203.89908,67.05554 -203.89908,200.033091zm256.876741,98.330612c24.896232,-24.896232 59.631015,-33.950942 91.689083,-27.175113c6.774985,32.058069 -2.278882,66.792852 -27.175113,91.689083c-24.896232,24.896232 -59.631015,33.950942 -91.689083,27.175113c-6.775829,-32.058913 2.278882,-66.793696 27.175113,-91.689083zm-197.644404,-27.175958c32.058069,-6.774985 66.792852,2.278882 91.689083,27.175113c24.896232,24.896232 33.950942,59.631015 27.175113,91.689083c-32.058069,6.774985 -66.792852,-2.278882 -91.689083,-27.175113c-24.896232,-24.897076 -33.950098,-59.631015 -27.175113,-91.689083z" class="active-path" id="path3816"/>
                </g>
            </g>
        </g>
    </g>
</svg>
