<?xml version="1.0" standalone="no"?><!DOCTYPE svg PUBLIC "-//W3C//DTD SVG 1.1//EN" "http://www.w3.org/Graphics/SVG/1.1/DTD/svg11.dtd"><svg t="1629465273453" class="icon" viewBox="0 0 1024 1024" version="1.1" xmlns="http://www.w3.org/2000/svg" p-id="4079" xmlns:xlink="http://www.w3.org/1999/xlink" width="64" height="64"><defs><style type="text/css"></style></defs><path d="M0 0m512 0l0 0q512 0 512 512l0 0q0 512-512 512l0 0q-512 0-512-512l0 0q0-512 512-512Z" fill="#222222" p-id="4080"></path><path d="M436.896 816.384c0.128-23.872 0.128-46.24 0-67.104-103.68 22.624-125.12-49.376-125.12-49.376-16.96-43.328-41.344-54.848-41.344-54.848-33.856-23.264 2.496-22.784 2.496-22.784 37.376 2.624 57.12 38.592 57.12 38.592 33.248 57.312 87.2 40.768 108.448 31.168 3.424-24.192 13.024-40.768 23.68-50.048-82.784-9.536-169.76-41.632-169.76-185.344 0-40.896 14.496-74.336 38.368-100.576-3.84-9.44-16.64-47.616 3.616-99.2 0 0 31.36-10.08 102.496 38.464 30.4-8.32 61.792-12.608 93.344-12.64 31.616 0.16 63.52 4.288 93.344 12.64 71.136-48.512 102.4-38.464 102.4-38.464 20.288 51.584 7.488 89.76 3.68 99.2 23.84 26.24 38.336 59.68 38.336 100.576 0 144.064-87.168 175.712-170.176 184.96 13.344 11.616 25.504 34.112 25.504 69.088v105.6l-186.432 0.096z" fill="#FFFFFF" p-id="4081"></path></svg>