<?xml version="1.0" standalone="no"?><!DOCTYPE svg PUBLIC "-//W3C//DTD SVG 1.1//EN" "http://www.w3.org/Graphics/SVG/1.1/DTD/svg11.dtd"><svg t="1630414651645" class="icon" viewBox="0 0 1024 1024" version="1.1" xmlns="http://www.w3.org/2000/svg" p-id="2005" xmlns:xlink="http://www.w3.org/1999/xlink" width="64" height="64"><defs><style type="text/css"></style></defs><path d="M32 32m480 0l0 0q480 0 480 480l0 0q0 480-480 480l0 0q-480 0-480-480l0 0q0-480 480-480Z" fill="#222222" p-id="2006"></path><path d="M441.59 797.36c0.12-22.38 0.12-43.35 0-62.91-97.2 21.21-117.3-46.29-117.3-46.29-15.9-40.62-38.76-51.42-38.76-51.42-31.74-21.81 2.34-21.36 2.34-21.36 35.04 2.46 53.55 36.18 53.55 36.18 31.17 53.73 81.75 38.22 101.67 29.22 3.21-22.68 12.21-38.22 22.2-46.92-77.61-8.94-159.15-39.03-159.15-173.76 0-38.34 13.59-69.69 35.97-94.29-3.6-8.85-15.6-44.64 3.39-93 0 0 29.4-9.45 96.09 36.06 28.5-7.8 57.93-11.82 87.51-11.85 29.64 0.15 59.55 4.02 87.51 11.85 66.69-45.48 96-36.06 96-36.06 19.02 48.36 7.02 84.15 3.45 93 22.35 24.6 35.94 55.95 35.94 94.29 0 135.06-81.72 164.73-159.54 173.4 12.51 10.89 23.91 31.98 23.91 64.77v99l-174.78 0.09z" fill="#FFFFFF" p-id="2007"></path></svg>